<?xml version="1.0" encoding="iso-8859-1"?>
<!-- Generator: Adobe Illustrator 19.0.0, SVG Export Plug-In . SVG Version: 6.00 Build 0)  -->
<svg version="1.1" id="Capa_1" xmlns="http://www.w3.org/2000/svg" xmlns:xlink="http://www.w3.org/1999/xlink" x="0px" y="0px"
	 viewBox="0 0 324.527 324.527" style="enable-background:new 0 0 324.527 324.527;" xml:space="preserve">
<g>
	<path style="fill:#FFE749;" d="M61.685,57.216c0-0.4,0-0.8-0.4-0.8l-11.2-10l14-5.2c0.4,0,0.4-0.4,0.8-0.8l6-14l9.2,12
		c0.4,0.4,0.4,0.4,0.8,0.4l15.2,1.2l-8.4,12.4c0,0.4,0,0.8,0,0.8l3.2,14.8l-14.4-4h-0.4c-0.4,0-0.4,0-0.8,0l-13.2,8.4L61.685,57.216
		z"/>
	<path style="fill:#FFE749;" d="M262.485,109.616c-2.4,0-4.4-1.2-6-2.8l-17.6-18c-0.4-0.4-0.4-0.4-0.8-0.4l-25.6,0.4
		c-4.4,0-7.6-3.2-7.6-7.6c0-0.8,0-1.2,0.4-2v-0.8l12.8-24c0-0.4,0-0.8,0-0.8l-8-24.4c-0.8-2.4-0.4-4.8,0.8-6.8c1.2-2,3.6-3.2,6-3.2
		h0.4l26.4,4.8l0,0c0.4,0,0.4,0,0.8-0.4l20.8-15.2c3.6-2.4,8.4-2,10.8,1.6c0.4,0.4,0.8,1.2,0.8,1.6v0.4l3.6,26.8
		c0,0.4,0.4,0.8,0.4,0.8l21.2,14.8c3.6,2.4,4,7.2,1.6,10.8c-0.4,0.4-0.8,0.8-1.2,1.2l-0.4,0.4l-24.4,12c-0.4,0-0.4,0.4-0.8,0.8
		l-8,25.2l-2.8,3.2l-0.8,0.4C264.885,109.216,263.685,109.616,262.485,109.616z"/>
	<path style="fill:#FFE749;" d="M194.885,239.616c-2.4,0-4.8-0.8-6.8-1.6l-34.8-18h-0.4h-0.4l-37.6,13.2c-6.4,2.4-14-1.2-16-7.6
		c-0.4-1.2-0.4-2-0.8-3.2v-0.4l6.8-42c0-0.4,0-0.8-0.4-1.2l-24-32c-2-2.8-2.8-6-2.4-9.6c0.8-6,5.6-10.8,12-10.8l38.4-5.6
		c0.4,0,0.8-0.4,0.8-0.4l22.8-32.8c4-5.6,12-7.2,17.6-3.2c2,1.2,3.2,2.8,4.4,4.8l17.6,35.6c0,0.4,0.4,0.4,0.8,0.8l38.4,11.6
		c6.8,2,10.4,9.2,8.4,15.6c-0.4,1.2-0.8,2-1.2,2.8l-0.4,0.4l-30.4,30.4c-0.4,0.4-0.4,0.8-0.4,0.8l0.8,40c0,3.6-1.2,6.8-3.6,9.2
		C201.285,238.416,198.085,240.016,194.885,239.616L194.885,239.616z"/>
	<path style="fill:#FFE749;" d="M36.485,269.616c0-0.4-0.4-0.8-0.8-0.8l-16.4-6.8l-2-4.8l15.2-11.6c0.4-0.4,0.4-0.4,0.4-0.8
		l1.6-18.4l4.8-1.6l14.8,10c0.4,0,0.4,0.4,0.8,0.4h0.8l16.8-4l4.4,2.8l-5.2,18.4c0,0.4,0,0.8,0,1.2l9.6,16.4l-4,3.6l-17.2,0.8
		c-0.4,0-0.8,0-0.8,0.4l-10.4,12l-5.2,4L36.485,269.616z"/>
	<path style="fill:#FFE749;" d="M253.685,307.216c-0.4,0-0.4-0.4-0.8-0.4l-18,2.8l-3.2-4l6.4-17.2c0-0.4,0-0.8,0-1.2l-8.8-17.6
		l2.4-1.2l0.8-1.6l18.8,0.8c0.4,0,0.8,0,0.8-0.4l12.8-12.8l4.8,0.8l1.2,2.4v0.4l4.4,15.2c0,0.4,0.4,0.8,0.8,0.8l15.6,8l1.6,4.8
		l-16,10.8c-0.4,0-0.4,0.4-0.4,0.8l-3.2,18l-5.2,1.2L253.685,307.216z"/>
</g>
<path style="fill:#603416;" d="M187.285,126.416l-17.6-36l0,0l0,0c-0.4-0.8-0.8-1.2-1.2-2c-2-2.4-5.2-3.6-8-2.8
	c-2.4,0.4-4.4,1.6-5.6,3.6l-22.8,32.8c-0.8,1.2-2,2.4-3.6,2.4l-38.4,5.6h-0.4c-0.8,0-1.6,0.4-2.4,0.4c-4.4,1.6-6.8,6.8-5.2,11.2
	c0.4,0.8,0.8,1.6,1.2,2.4l24,31.6c1.2,1.2,1.6,2.8,1.2,4.4l-6.8,39.2l0,0c-0.8,4.8,2.4,9.2,7.2,10c1.6,0.4,2.8,0,4.4-0.4l37.6-13.2
	c1.6-0.8,3.2-0.8,4.4,0l34.8,18.8l0,0l0,0c0.8,0.4,1.6,0.8,2.4,0.8c0.8,0.4,1.6,0.4,2.4,0.4c4.8,0,8.4-4,8.4-8.8l-0.8-39.6
	c0-1.6,0.4-2.8,1.6-4l28-27.6l0.4-0.4c0.8-0.4,1.2-1.2,1.6-1.6c2.4-4,1.2-9.6-2.8-12c-0.8-0.4-1.2-0.8-2-0.8l-38-11.6
	C189.685,128.816,188.085,127.616,187.285,126.416z M277.285,39.616l-3.6-25.2v-0.4c0-0.4,0-0.4-0.4-0.8c0-0.4-0.4-0.4-0.4-0.8
	c-1.2-1.6-3.6-2-5.2-0.8l-20.8,15.2l0,0c-1.2,0.8-2.4,1.2-4,0.8l-24.4-4.4h-0.4c-0.4,0-0.8,0-1.2,0c-2,0-3.6,2-3.6,4
	c0,0.4,0,0.8,0,0.8l8,24.4l0,0c0.4,1.2,0.4,2.8-0.4,4l-12,22.4v0.4c0,0.4-0.4,0.4-0.4,0.8c0,0.4,0,0.8,0,0.8c0,2,1.6,3.6,3.6,3.6
	l0,0h25.2c1.6,0,2.8,0.4,4,1.6l17.6,18l0,0l0,0c0.4,0.4,1.2,0.8,1.6,1.2l0,0c2,0.8,4-0.4,4.4-2.4l0,0l0,0l8-24.8l0,0
	c0.4-1.2,1.6-2.4,2.8-3.2l22.8-10.8l0.4-0.4c0.4,0,0.4-0.4,0.8-0.4l0.4-0.4l0,0c0.4-0.8,0.8-1.6,0.8-2.8c0-0.8-0.8-2-1.6-2.4l0,0
	l-20.8-14.8l0,0C278.085,42.416,277.285,40.816,277.285,39.616L277.285,39.616z M284.085,13.216l3.2,22.8l18.8,13.2l0,0
	c6.4,4.4,8,13.2,3.6,19.6l0,0l-0.4,0.4c-0.8,0.8-1.2,1.6-2,2c-0.8,0.8-1.6,1.2-2.4,1.6h-0.4l0,0l0,0l-21.2,10l-7.2,22.4l0,0
	c-2.4,7.2-10.4,11.6-17.6,9.2l0,0c-2.4-0.8-4.4-2-6-4l-16-16.4l-23.2,0.4c-7.6,0-14-6-14.4-14c0-2.4,0.4-4.4,1.6-6.4l0,0l0,0l0,0
	l11.2-20.8l-7.6-22c-2.4-7.2,1.6-15.2,8.8-18c2.4-0.8,5.2-0.8,8-0.4l22,4l18.8-14c6.4-4.8,15.2-3.2,20,2.8
	C282.485,8.416,283.685,10.816,284.085,13.216L284.085,13.216z M76.885,41.216l-5.2-6.8l-3.2,7.6l0,0c-0.4,1.2-1.6,2.4-3.2,2.8
	l-7.6,2.8l6.4,5.6c1.2,0.8,1.6,2.4,2,3.6l0.4,8.4l6.8-4c1.2-0.8,2.8-1.2,4.4-0.8l8,2.4l-2-8l0,0c-0.4-1.2,0-2.8,0.8-4l4.8-6.8
	l-8.4-0.8C79.285,43.216,77.685,42.416,76.885,41.216L76.885,41.216z M78.485,26.416l5.2,6.8l8.4,0.8l0,0c4.8,0.4,8.4,4.8,8.4,9.6
	c0,0.8-0.4,1.6-0.4,2.4c0,0.4-0.4,0.8-0.8,1.6l-0.4,0.4l-0.4,0.4l-4.4,6l2,8.4l0,0c1.2,4.8-2,9.6-6.8,10.8h-0.4c-0.8,0-1.6,0-2,0
	l0,0c-0.8,0-1.2,0-2-0.4l0,0l-8-2.4l-7.2,4.4l-0.4,0.4c-4.4,2.4-9.6,0.8-12-3.2c-0.4-0.8-0.8-1.2-0.8-2v-0.4c0-0.4,0-0.8,0-1.2
	s0-0.8,0-0.8v-0.4l-0.4-8l-6.4-5.6c-3.6-3.2-4-8.8-0.8-12.8c1.2-1.2,2.4-2,4-2.8l7.6-2.8l3.2-8c2-4.4,7.2-6.8,12-4.8
	c0.8,0.4,1.2,0.8,2,1.2l0.4,0.4c0.4,0.4,0.8,0.8,1.2,1.2L78.485,26.416z M270.485,274.416l-4.4-15.2l0,0l0,0l0,0h-0.4h-0.4
	l-11.2,10.8l0,0c-1.2,1.2-2.4,1.6-4,1.6l-15.2-0.8h-0.8l0,0c0,0,0,0,0,0.4l0,0l6.8,14c0.8,1.2,0.8,3.2,0.4,4.4l-5.6,15.2l0,0l0,0
	l0,0h0.4l15.6-2.4l0,0c1.6-0.4,2.8,0,4,1.2l12.4,9.6l0,0h0.4h0.4l0,0l0,0v-0.4l2.8-15.6l0,0c0.4-1.2,1.6-2.4,2.8-2.8l12.8-8.8
	l0.4-0.4l0,0l0,0c0,0,0,0,0-0.4l0,0l-14-7.2C272.085,277.216,270.885,276.016,270.485,274.416z M276.085,256.416l3.6,13.2l12,6.4
	c5.2,2.8,7.2,9.2,4.8,14.4c-0.8,1.6-2,2.8-3.2,3.6l-0.4,0.4l0,0l-11.2,7.6l-2.4,13.6l0,0c-0.8,6-6.4,9.6-12.4,8.8l0,0
	c-2-0.4-3.6-1.2-5.2-2.4l0,0l-10.4-8.4l-13.6,2h-0.4c-6,0.8-11.2-3.6-12-9.6c0-1.6,0-2.8,0.4-4.4c0-0.4,0-0.4,0.4-0.8l4.4-12.8
	l-6-12.4l0,0c-2.8-5.2-0.4-11.6,4.8-14.4c0.8-0.4,2-0.8,3.2-0.8l0,0c1.2,0,2,0,3.2,0l12.8,0.4l9.6-9.6l0,0l0.4-0.4
	c4.4-4,10.8-3.6,14.8,0.4l0,0l0.4,0.4C274.885,253.216,275.685,254.816,276.085,256.416L276.085,256.416z M52.485,237.616l-13.2-8.8
	l0,0h-0.4c0,0,0,0,0,0.4l-1.6,16c0,1.6-0.8,2.8-2,3.6l-12,9.2l-0.4,0.4l0,0l0,0c0,0,0,0,0,0.4l0,0l14.8,6.4l0,0
	c1.2,0.4,2.4,1.6,2.8,3.2l5.2,14.8v0.4l0,0l0,0h0.4l0.4-0.4l0,0l10.4-11.6l0,0c0.8-1.2,2.4-1.6,3.6-1.6l15.6-0.4h0.4c0,0,0,0,0-0.4
	c0,0,0,0,0-0.4l0,0l-8-13.2c-0.8-1.2-1.2-2.8-0.8-4.4l4.4-14.8v-0.4l0,0l0,0l0,0c0,0,0,0,0-0.4h-0.4l-15.2,3.6
	C55.285,238.416,53.685,238.416,52.485,237.616z M45.285,220.016l11.2,7.6l13.2-3.2l0,0c5.6-1.2,11.6,2.4,12.8,8
	c0.4,0.8,0.4,2,0.4,2.8l0,0c0,0.8,0,1.2-0.4,2v0.4l0,0l-4,13.2l6.8,11.6l0,0c0,0.4,0.4,0.4,0.4,0.8c2.4,4.8,0.8,11.2-4,14l0,0
	l-0.8,0.4c-1.6,0.8-3.2,1.2-4.8,1.2l-13.2,0.4l-8.8,10.8l0,0v0.4l0,0l0,0c-4,4-10.4,4.4-14.8,0.4l0,0c-0.8-0.4-1.2-1.2-1.6-2
	c-0.4-0.8-0.8-1.6-1.2-2.4l0,0l-4.8-12.8l-12.8-5.6c-5.6-2.4-8-8.8-5.6-14c0.4-0.8,0.8-2,1.6-2.8l0.4-0.4c0.4-0.8,1.2-1.2,2-1.6
	l10.4-8l1.2-13.6c0.4-6,5.6-10.4,11.6-10C42.085,218.016,43.685,218.816,45.285,220.016L45.285,220.016z M179.285,86.016l16.8,33.6
	l36,10.8c10,3.2,16,13.6,12.8,24c-0.4,1.6-1.2,2.8-2,4s-1.6,2-2.4,3.2l-0.4,0.8h-0.4l-26.8,26.4l0.8,37.6c0.4,10.4-8,19.2-18.8,19.6
	c-3.6,0-6.8-0.8-9.6-2.4l0,0l-33.2-17.2l-35.6,12.4c-10,3.6-20.8-1.6-24.4-11.6c-0.8-2.8-1.2-5.6-0.8-8.8v-0.4l6.4-37.2l-22.8-30.4
	c-6.4-8.4-4.8-20.4,3.6-26.8c2.8-2,6.4-3.6,10-4l36-5.2l21.6-31.2c6-8.8,18-10.8,26.4-4.8
	C175.285,80.416,177.685,82.816,179.285,86.016L179.285,86.016z M64.085,53.216L64.085,53.216 M54.085,290.016L54.085,290.016
	 M72.485,235.216L72.485,235.216 M82.485,237.616v0.4 M91.685,218.016L91.685,218.016"/>
<g>
</g>
<g>
</g>
<g>
</g>
<g>
</g>
<g>
</g>
<g>
</g>
<g>
</g>
<g>
</g>
<g>
</g>
<g>
</g>
<g>
</g>
<g>
</g>
<g>
</g>
<g>
</g>
<g>
</g>
</svg>
