<svg xmlns="http://www.w3.org/2000/svg" xml:space="preserve" width="140mm" height="42mm" version="1.1" style="shape-rendering:geometricPrecision; text-rendering:geometricPrecision; image-rendering:optimizeQuality; fill-rule:evenodd; clip-rule:evenodd"
viewBox="0 0 14000 4200"
 xmlns:xlink="http://www.w3.org/1999/xlink">
 <defs>
  <style type="text/css">
    .fil1 {fill:#FEFEFE;transition:all 0.2s ease-in-out}
    .fil2 {fill:#FEFEFE;fill-rule:nonzero;transition:all 0.2s ease-in-out}
    .fil3 {fill:url(#id0)}
    .dark-logo .fil1, .dark-logo .fil2 {fill:#27223E}
    .dark-logo .fil3 {fill:url(#id1)}
  </style>
  <linearGradient id="id0" gradientUnits="userSpaceOnUse" x1="7153.12" y1="4137.38" x2="7153.12" y2="3600">
   <stop offset="0" style="stop-opacity:0; stop-color:#FEFEFE"/>
   <stop offset="1" style="stop-opacity:0.517647; stop-color:#FEFEFE"/>
  </linearGradient>
  <linearGradient id="id1" gradientUnits="userSpaceOnUse" x1="7153.12" y1="4137.38" x2="7153.12" y2="3600">
   <stop offset="0" style="stop-opacity:0; stop-color:#27223E"/>
   <stop offset="1" style="stop-opacity:0.517647; stop-color:#27223E"/>
  </linearGradient>
 </defs>
 <g id="Layer_x0020_1">
  <metadata id="CorelCorpID_0Corel-Layer"/>
  <path class="fil1" d="M6409 600l1500 0 0 3000 -1500 0 0 -3000zm183 260c188,-37 387,-76 598,-118 224,-44 464,-92 719,-142 0,500 0,1001 0,1501 0,499 0,1000 0,1499 -255,-48 -495,-93 -719,-135 -211,-39 -410,-76 -598,-111 0,-416 0,-831 0,-1247 0,-415 0,-831 0,-1247z"/>
  <polygon class="fil2" points="869,1487 546,1487 546,2945 371,2945 371,1487 49,1487 49,1315 869,1315 "/>
  <polygon id="1" class="fil2" points="1663,2186 1196,2186 1196,2774 1737,2774 1737,2945 1020,2945 1020,1315 1732,1315 1732,1487 1196,1487 1196,2015 1663,2015 "/>
  <polygon id="2" class="fil2" points="2121,1315 2415,2645 2420,2645 2715,1315 2941,1315 2941,2945 2767,2945 2767,2319 2783,1692 2778,1691 2475,2945 2360,2945 2058,1692 2053,1693 2069,2319 2069,2945 1896,2945 1896,1315 "/>
  <polygon id="3" class="fil2" points="4014,2945 3839,2945 3839,2223 3357,2223 3357,2945 3182,2945 3182,1315 3357,1315 3357,2051 3839,2051 3839,1315 4014,1315 "/>
  <path id="4" class="fil2" d="M4846 2535l-401 0 -92 410 -178 0 387 -1630 170 0 383 1630 -178 0 -91 -410zm-361 -181l321 0 -157 -713 -5 0 -159 713z"/>
  <path id="5" class="fil2" d="M5357 2945l-188 0 242 -708c-63,-41 -110,-98 -143,-169 -32,-72 -48,-158 -48,-259 0,-157 34,-278 101,-365 68,-86 162,-129 282,-129l354 0 0 1630 -176 0 0 -635 -211 0 -213 635zm424 -1458l-178 0c-69,0 -121,28 -155,85 -35,57 -53,136 -53,238 0,99 18,178 53,238 35,60 86,90 152,90l181 0 0 -651z"/>
  <polygon class="fil2" points="7394,2216 7274,2216 7274,2945 7098,2945 7098,1315 7274,1315 7274,2033 7378,2033 7711,1315 7920,1315 7524,2089 7950,2945 7736,2945 "/>
  <path id="1" class="fil2" d="M8850 2355c0,193 -39,344 -116,452 -77,108 -181,161 -310,161 -128,0 -230,-53 -305,-161 -76,-108 -113,-259 -113,-452l0 -448c0,-192 37,-343 113,-452 76,-109 178,-163 305,-163 129,0 232,54 310,163 77,109 116,260 116,452l0 448zm-175 -451c0,-142 -22,-249 -65,-323 -44,-73 -106,-110 -186,-110 -79,0 -140,37 -182,110 -42,74 -63,181 -63,323l0 451c0,144 21,252 64,326 42,74 102,111 181,111 80,0 142,-37 186,-110 43,-74 65,-183 65,-327l0 -451z"/>
  <polygon id="2" class="fil2" points="9272,1315 9566,2645 9571,2645 9866,1315 10092,1315 10092,2945 9918,2945 9918,2319 9934,1692 9929,1691 9626,2945 9511,2945 9209,1692 9204,1693 9220,2319 9220,2945 9047,2945 9047,1315 "/>
  <polygon id="3" class="fil2" points="11165,2945 10990,2945 10990,2223 10508,2223 10508,2945 10333,2945 10333,1315 10508,1315 10508,2051 10990,2051 10990,1315 11165,1315 "/>
  <path id="4" class="fil2" d="M11997 2535l-401 0 -92 410 -178 0 387 -1630 170 0 384 1630 -179 0 -91 -410zm-360 -181l320 0 -157 -713 -5 0 -158 713z"/>
  <polygon id="5" class="fil2" points="13024,1487 12701,1487 12701,2945 12525,2945 12525,1487 12204,1487 12204,1315 13024,1315 "/>
  <path id="6" class="fil2" d="M13679 2535l-401 0 -91 410 -178 0 387 -1630 169 0 384 1630 -178 0 -92 -410zm-360 -181l320 0 -157 -713 -5 0 -158 713z"/>
  <path class="fil3" d="M6403 3600c250,0 500,0 750,0 250,0 500,0 750,0 105,50 231,109 384,181 191,90 435,205 756,356 -492,0 -985,0 -1478,0 -492,0 -985,0 -1477,0 89,-151 156,-266 209,-356 42,-72 77,-131 106,-181z"/>
  <polygon class="fil2" points="1704,1242 1045,1242 1045,1069 1704,1069 "/>
 </g>
</svg>
